<svg version="1" xmlns="http://www.w3.org/2000/svg" width="653.333" height="653.333" viewBox="0 0 490.000000 490.000000"><path d="M248.1 58.6c-1.2 1.9-2.1 3.9-2.1 4.3 0 .4-1.1 1.8-2.5 3.1s-2.5 2.9-2.5 3.5c0 .6-.9 2.1-1.9 3.2-1.1 1.2-4.5 5.8-7.6 10.4-3.1 4.6-6.5 9.3-7.5 10.4-1 1.1-2.6 3.4-3.7 5.1-1 1.7-3.8 6-6.3 9.4-5.1 7.2-10.1 14.5-21.3 30.9-4.3 6.3-8.9 12.8-10.3 14.6-1.3 1.8-2.4 3.5-2.4 3.9 0 .7-.1.9-4.8 6.6-1.6 1.9-3.9 5.2-5.1 7.2-1.2 2.1-2.7 3.8-3.2 3.8s-.9.6-.9 1.4c0 .7-.7 1.9-1.5 2.6-.9.7-2.3 2.8-3.1 4.6-.9 1.9-2 3.4-2.5 3.4s-.9.5-.9 1c0 .6-1.9 3.6-4.2 6.7-4.6 5.9-4.7 6.1-12.2 17.4-2.7 4.1-6.2 9-7.8 10.9-1.5 1.9-2.8 3.8-2.8 4.2 0 1.2-7.3 11.6-10.6 15.2-.6.6-3.7 4.9-6.9 9.6-3.2 4.7-7.3 10.4-9.1 12.7-1.9 2.3-3.4 4.4-3.4 4.7 0 .3-1.6 2.8-3.5 5.5-1.9 2.6-3.5 5.3-3.5 6 0 .6-.4 1.1-.8 1.1-.7 0-4.6 5.3-8.7 11.8-.5.9-1.8 2.5-2.7 3.5-.9 1.1-2.2 3.2-2.8 4.8-.7 1.6-1.6 2.9-2.1 2.9s-.9.4-.9 1c0 .5-.7 1.8-1.5 2.7-3.5 4.2-16.5 23-16.5 23.9 0 .4-2.6 3.7-4.7 5.9-.7.8-1.3 1.6-1.3 2 0 .7-8.2 12.3-12.9 18.1-.4.5-1.4 2.1-2.1 3.5-.7 1.3-1.9 2.8-2.6 3.2-.8.4-1.4 1.2-1.4 1.7 0 .9-7.8 12.9-9.1 14-.3.3-1.4 2-2.4 3.7-1.1 1.8-2.2 3.3-2.5 3.3-.4 0-2.2 2.4-4 5.2-1.9 2.9-4 5.9-4.7 6.6-.7.7-1.3 1.6-1.3 2 0 .4 9.8.6 21.7.4 24.3-.3 20.8.6 30.2-8.1 1.7-1.6 3.2-2.7 3.4-2.4.3.2 2.1-1.2 4.1-3.2 2-1.9 4.1-3.5 4.6-3.5.6 0 3.1-2 5.8-4.5 2.6-2.5 5.2-4.5 5.7-4.5.6 0 3.3-2.3 6.2-5 2.9-2.8 5.5-5 5.9-5 .4 0 1.4-.7 2.3-1.5 3.2-3 16.7-13.8 19.1-15.3 1.4-.9 4-3.1 5.8-4.9 1.8-1.8 3.7-3.3 4.2-3.3.6 0 1-.3 1-.8 0-.4 1.5-1.6 3.4-2.6s5.1-3.4 7.1-5.3 6.9-5.9 10.8-8.9c4-3 8.4-6.6 10-7.9 1.5-1.4 3.2-2.5 3.7-2.5.6 0 1-.6 1-1.4 0-.7 1.4-1.9 3-2.6 1.7-.7 3.7-2.2 4.5-3.4.8-1.1 1.5-1.7 1.5-1.4 0 .4 1.1-.3 2.5-1.5 4-3.7 9.2-7.7 9.9-7.7 1.2 0 4.4-3.9 3.8-4.6-.4-.4-.2-.4.4-.1.5.3 3.1-1.4 5.7-3.8s4.7-4.1 4.7-3.7c0 .3 1.2-.5 2.8-1.9 1.5-1.3 4.7-4 7.2-5.9 2.5-1.9 4.7-3.8 4.8-4.2.2-.4.8-.8 1.3-.8s2.4-1.3 4.2-2.9c7-6.4 9.3-8.3 11.7-9.6 1.4-.7 4.3-3 6.5-5 3.7-3.4 21.1-17.3 27.5-22 3.9-2.9 12.9-10.2 17-13.9 4-3.4 9.6-7.6 10.5-7.6 1.6 0-.5 6.1-4.6 12.9-1.1 1.9-4.2 7.6-6.9 12.7-2.6 5.1-5.7 10.5-6.9 12-1.1 1.5-2.1 3.4-2.1 4.3 0 1-.4 2.1-1 2.7-.5.5-4.1 7.1-7.9 14.5-3.8 7.5-7.4 14.5-8 15.7l-2.2 4.4c-1.5 2.9-6.9 13.1-13.6 25.8-3 5.8-6.8 13-8.4 16-1.6 3-3.3 6.2-3.7 7-1.4 2.3-3.2 5.8-7.4 14-2.2 4.1-4.7 8.9-5.7 10.6-1 1.6-2.2 4.1-2.6 5.5-.4 1.3-1.9 4.2-3.4 6.4-3.1 4.9-11.7 21-13.2 24.7-.6 1.6-1.6 2.8-2.2 2.8-.7 0-.5.5.3 1 1.3.8 130.9 1.4 219 1 12.4-.1 23-.1 23.5-.1.6 0 9.6.2 20 .4 10.5.2 19.6.2 20.3-.1 1.4-.5 1.6-3.2.2-3.2-.5 0-1-.7-1-1.5s-1.3-3-3-4.8c-1.6-1.9-3-4.2-3-5.1 0-.9-.7-1.9-1.6-2.3-.8-.3-2.5-2.6-3.6-5-1.2-2.5-2.7-4.7-3.5-5-.7-.3-1.3-.9-1.3-1.4 0-1.5-5.3-9.3-7.3-10.7-.9-.7-1.5-1.7-1.2-2.2 1.1-1.8-8.1-16-10.3-16-.4 0-.8-1-.9-2.1-.1-1.2-1.6-3.9-3.2-6-1.7-2.1-3.1-4-3.1-4.3 0-.5-16-24.7-17-25.6-.3-.3-1.2-1.9-2-3.5-.8-1.7-1.8-3.2-2.1-3.5-1-.9-6.9-9.8-6.9-10.5 0-.3-.4-1.1-1-1.8-3.3-4.1-8.3-11.3-10.8-15.6-1.6-2.8-3.2-4.8-3.7-4.3-.4.4-.5.2-.2-.5.4-.6-.4-2.5-1.8-4.1-1.4-1.6-2.5-3.5-2.5-4.1 0-.6-.4-1.1-1-1.1-.5 0-1-.7-1-1.5s-.4-1.5-.9-1.5-1.1-.8-1.4-1.8c-.6-1.7-3.7-7.2-4.7-8.2-.3-.3-1.3-1.9-2.2-3.5-1-1.7-2.2-2.9-2.7-2.8-.6.2-.8-.4-.5-1.2.4-.8.1-1.5-.5-1.5s-1.1-.5-1.1-1c0-.6-1.7-3.3-3.7-6.1-2.1-2.7-3.8-5.3-3.8-5.7 0-.8-3.3-5.7-5.7-8.2-.9-1-1.9-2.7-2.3-3.9-.3-1.2-1.1-2.1-1.7-2.1-.6 0-.9-.3-.5-.6.3-.3-.2-1.4-1.1-2.4-.9-1-2.6-3.6-3.7-5.7s-2.8-4.7-3.7-5.7c-1-1.1-1.8-2.4-1.8-2.8 0-1.1-3.6-6.3-7.7-11.1-1.8-2-3.3-4.1-3.3-4.6 0-1.1-9.3-15.6-13.9-21.7-1.7-2.3-3.1-4.6-3.1-5.1 0-.6-.7-1.6-1.5-2.3-.8-.7-1.3-1.5-1.1-1.9.3-.4-1.3-2.6-3.5-4.9-2.1-2.4-3.9-4.7-3.9-5.1 0-.9-7.2-12-11.2-17.2-1.6-2-2.8-3.9-2.8-4.3 0-.3-1.5-2.8-3.2-5.4-5.2-7.6-5.8-8.5-6.9-11.4-.6-1.4-1.7-2.9-2.5-3.2-.8-.3-1.4-1.2-1.4-2.1 0-1.8-10.8-18.3-13.4-20.4-.9-.7-1.6-1.9-1.6-2.5 0-.6-1.1-2.4-2.5-4s-2.5-3.5-2.5-4.3c0-.7-.5-1.3-1-1.3-.6 0-1.6-1.1-2.2-2.5-1.6-3.4-3.2-3.1-5.7 1.1zm134.4 213c1.9 1.5 1.9 1.5-.9 1.2-1.6-.2-3.1-.9-3.4-1.6-.5-1.7 1.9-1.5 4.3.4z"/></svg>